<svg width="215" height="28" viewBox="0 0 215 28" fill="none" xmlns="http://www.w3.org/2000/svg">
<path d="M-2.43858e-05 13.7559C-2.43858e-05 5.96592 5.24398 -7.93934e-05 13.756 -7.93934e-05C21.242 -7.93934e-05 26.182 4.10392 26.98 10.7159H20.9C20.292 7.18192 17.48 5.35792 13.832 5.35792C9.19598 5.35792 6.11798 8.24592 6.11798 13.7559C6.11798 19.3039 9.19598 22.1919 13.832 22.1919C17.48 22.1919 20.292 20.3299 20.9 16.7959H26.98C26.182 23.4459 21.242 27.5499 13.756 27.5499C5.24398 27.5499 -2.43858e-05 21.5839 -2.43858e-05 13.7559ZM29.6133 13.7559C29.6133 5.96592 34.7813 -7.93934e-05 43.2933 -7.93934e-05C51.7673 -7.93934e-05 56.9353 5.96592 56.9353 13.7559C56.9353 21.5839 51.7673 27.5499 43.2933 27.5499C34.7813 27.5499 29.6133 21.5839 29.6133 13.7559ZM35.7313 13.7559C35.7313 18.9239 38.2393 22.1919 43.2933 22.1919C48.3473 22.1919 50.8553 18.9239 50.8553 13.7559C50.8553 8.62592 48.3473 5.35792 43.2933 5.35792C38.2393 5.35792 35.7313 8.62592 35.7313 13.7559ZM66.5038 27.1699H60.3858V0.37992H72.3938L80.4498 25.6499H81.9698L80.8298 21.8119V0.37992H86.9478V27.1699H74.9018L66.8838 1.89992H65.3258L66.5038 5.73792V27.1699ZM89.6384 0.37992H113.236V5.73792H104.496V27.1699H98.4164V5.73792H89.6384V0.37992ZM138.603 27.1699H132.409L130.015 18.5819H119.147L116.753 27.1699H110.559L118.273 0.37992H130.851L138.603 27.1699ZM123.783 1.89992L120.629 13.2619H128.533L125.341 1.89992H123.783ZM138.603 13.7559C138.603 5.96592 143.847 -7.93934e-05 152.359 -7.93934e-05C159.845 -7.93934e-05 164.785 4.10392 165.583 10.7159H159.503C158.895 7.18192 156.083 5.35792 152.435 5.35792C147.799 5.35792 144.721 8.24592 144.721 13.7559C144.721 19.3039 147.799 22.1919 152.435 22.1919C156.083 22.1919 158.895 20.3299 159.503 16.7959H165.583C164.785 23.4459 159.845 27.5499 152.359 27.5499C143.847 27.5499 138.603 21.5839 138.603 13.7559ZM165.935 0.37992H189.533V5.73792H180.793V27.1699H174.713V5.73792H165.935V0.37992ZM214.275 19.7979C214.275 24.3959 211.045 27.5499 202.799 27.5499C193.147 27.5499 189.537 23.5979 189.537 16.8339H195.655C195.655 20.8999 197.669 22.1919 202.989 22.1919C206.903 22.1919 208.195 21.3179 208.195 19.8739C208.195 17.9359 204.927 17.0619 201.013 15.7319C195.351 13.8319 190.753 12.3119 190.753 7.06792C190.753 2.50792 194.363 -7.93934e-05 201.279 -7.93934e-05C209.487 -7.93934e-05 213.173 4.17992 213.173 9.49992H207.093C207.093 6.23192 204.585 5.35792 201.279 5.35792C198.543 5.35792 196.871 5.96592 196.871 7.29592C196.871 8.51192 197.479 8.96792 201.773 10.4119C206.713 12.0839 214.275 14.2119 214.275 19.7979Z" fill="#2C2C2C"/>
</svg>
