<svg width="103" height="32" viewBox="0 0 103 32" fill="none" xmlns="http://www.w3.org/2000/svg">
<rect x="0.5" width="102" height="32" rx="4" fill="#F4F4F4"/>
<g clip-path="url(#clip0_174_1359)">
<path d="M30.5 16C30.5 11.0294 26.4706 7 21.5 7C16.5294 7 12.5 11.0294 12.5 16C12.5 20.9706 16.5294 25 21.5 25C26.4706 25 30.5 20.9706 30.5 16Z" fill="#2D79EC"/>
<path d="M17.7686 17.2689L15.1658 16.4211C15.1658 16.4211 14.8544 16.2951 14.9552 16.0089C14.975 15.9495 15.0182 15.8991 15.1424 15.8127C15.7184 15.4113 25.8182 11.7807 25.8182 11.7807C25.8182 11.7807 26.1026 11.6853 26.2718 11.7483C26.3492 11.7771 26.3978 11.8113 26.4392 11.9301C26.4536 11.9733 26.4626 12.0669 26.4626 12.1605C26.4626 12.2271 26.4536 12.2901 26.4482 12.3873C26.387 13.3791 24.5456 20.7861 24.5456 20.7861C24.5456 20.7861 24.4358 21.2199 24.0416 21.2343C23.8976 21.2397 23.723 21.2109 23.5142 21.0309C22.7402 20.3649 20.0636 18.5667 19.4714 18.1707C19.439 18.1491 19.4282 18.1203 19.4228 18.0915C19.4138 18.0501 19.4606 17.9979 19.4606 17.9979C19.4606 17.9979 24.1208 13.8561 24.245 13.4205C24.254 13.3863 24.218 13.3701 24.1694 13.3845C23.8598 13.4979 18.494 16.8873 17.9018 17.2599C17.8676 17.2815 17.7704 17.2671 17.7704 17.2671L17.7686 17.2689Z" fill="white"/>
</g>
<path d="M44.8594 20H43.3477V12.8223H40.7812V11.5449H47.4258V12.8223H44.8594V20ZM49.7784 14.6445C48.923 14.6445 48.3019 15.2656 48.2374 16.1797H51.2726C51.2433 15.2539 50.6456 14.6445 49.7784 14.6445ZM51.2784 18.0957H52.6495C52.462 19.2793 51.3253 20.0938 49.8312 20.0938C47.9386 20.0938 46.7667 18.8398 46.7667 16.8242C46.7667 14.8086 47.9445 13.5078 49.7784 13.5078C51.5714 13.5078 52.7081 14.7324 52.7081 16.6719V17.1523H48.2257V17.2402C48.2257 18.2715 48.882 18.957 49.8605 18.957C50.5636 18.957 51.1085 18.623 51.2784 18.0957ZM53.6194 20V11.1523H55.0784V20H53.6194ZM58.9955 14.6445C58.14 14.6445 57.5189 15.2656 57.4545 16.1797H60.4896C60.4603 15.2539 59.8627 14.6445 58.9955 14.6445ZM60.4955 18.0957H61.8666C61.6791 19.2793 60.5423 20.0938 59.0482 20.0938C57.1556 20.0938 55.9838 18.8398 55.9838 16.8242C55.9838 14.8086 57.1615 13.5078 58.9955 13.5078C60.7884 13.5078 61.9252 14.7324 61.9252 16.6719V17.1523H57.4427V17.2402C57.4427 18.2715 58.099 18.957 59.0775 18.957C59.7806 18.957 60.3255 18.623 60.4955 18.0957ZM65.5962 18.7988C66.5688 18.7988 67.2075 18.0137 67.2075 16.7832C67.2075 15.5527 66.5688 14.7383 65.5962 14.7383C64.6352 14.7383 64.0141 15.5352 64.0141 16.7832C64.0141 18.0254 64.6352 18.7988 65.5962 18.7988ZM65.5962 22.3203C63.9966 22.3203 62.8657 21.5996 62.7544 20.4805H64.2134C64.3364 20.9434 64.9106 21.2305 65.643 21.2305C66.5923 21.2305 67.2075 20.7441 67.2075 19.9531V18.8633H67.1723C66.8325 19.5488 66.0825 19.9766 65.1626 19.9766C63.5805 19.9766 62.52 18.7344 62.52 16.7773C62.52 14.791 63.563 13.5254 65.1919 13.5254C66.1059 13.5254 66.8384 13.9648 67.2075 14.6738H67.2368V13.5957H68.6665V19.8418C68.6665 21.3711 67.477 22.3203 65.5962 22.3203ZM69.7945 20V13.5957H71.1949V14.709H71.2242C71.4293 13.959 72.0035 13.5254 72.7594 13.5254C72.9117 13.5254 73.0992 13.5488 73.2047 13.584V14.9141C73.0875 14.8613 72.8238 14.8262 72.6246 14.8262C71.7691 14.8262 71.2535 15.3828 71.2535 16.2852V20H69.7945ZM76.1491 18.9512C77.0339 18.9512 77.7077 18.4004 77.7077 17.6211V17.1348L76.2429 17.2285C75.446 17.2812 75.0241 17.5859 75.0241 18.1074C75.0241 18.623 75.4695 18.9512 76.1491 18.9512ZM75.7214 20.0703C74.4616 20.0703 73.5593 19.3027 73.5593 18.166C73.5593 17.0234 74.4323 16.373 76.0437 16.2734L77.7077 16.1738V15.7051C77.7077 15.0254 77.2507 14.6562 76.4655 14.6562C75.8034 14.6562 75.3288 15.002 75.2292 15.5176H73.8816C73.9167 14.3457 75.0066 13.5078 76.5124 13.5078C78.112 13.5078 79.1491 14.3398 79.1491 15.6113V20H77.7487V18.9688H77.7136C77.362 19.6543 76.571 20.0703 75.7214 20.0703ZM80.2537 20V13.5957H81.6541V14.7207H81.6834C81.9647 13.9766 82.662 13.5195 83.5057 13.5195C84.408 13.5195 85.0584 13.9766 85.2987 14.791H85.328C85.6385 14.0059 86.4061 13.5195 87.326 13.5195C88.5858 13.5195 89.4178 14.3633 89.4178 15.6406V20H87.9588V15.998C87.9588 15.2012 87.537 14.75 86.787 14.75C86.0545 14.75 85.5448 15.2949 85.5448 16.0742V20H84.1268V15.916C84.1268 15.1953 83.6815 14.75 82.9725 14.75C82.2342 14.75 81.7127 15.3184 81.7127 16.1094V20H80.2537Z" fill="#27293E"/>
<defs>
<clipPath id="clip0_174_1359">
<rect width="18" height="18" fill="white" transform="translate(12.5 7)"/>
</clipPath>
</defs>
</svg>
