<svg width="42" height="32" viewBox="0 0 42 32" fill="none" xmlns="http://www.w3.org/2000/svg">
<rect width="42" height="32" rx="4" fill="#F4F4F4"/>
<rect width="42" height="32" rx="4" fill="#F4F4F4"/>
<path d="M27.0273 14.5724C26.6737 14.9324 26.1723 15.1381 25.6645 15.1381H24.5716L24.5523 15.1574C24.6616 15.5302 24.7259 15.9288 24.7259 16.3403C24.7259 18.5645 22.913 20.3774 20.6823 20.3774C18.458 20.3774 16.6451 18.5645 16.6451 16.3403C16.6451 14.1096 18.458 12.2967 20.6823 12.2967C21.068 12.2967 21.4473 12.3481 21.8009 12.4574L21.833 12.4253V11.3131C21.833 10.7924 22.0323 10.3103 22.3987 9.95029L23.0094 9.33953C22.2701 9.08881 21.4859 8.96027 20.6887 8.96027C16.6194 8.96027 13.3087 12.271 13.3087 16.3338C13.3087 20.4032 16.6194 23.7138 20.6887 23.7138C24.758 23.7138 28.0623 20.4032 28.0623 16.3338C28.0623 15.5109 27.9273 14.7074 27.6573 13.9424L27.0273 14.5724Z" fill="#2D79EC"/>
<path d="M28.6537 10.6125C28.5637 10.3745 28.3452 10.2138 28.0944 10.1945L26.873 10.1046L26.783 8.88315C26.7637 8.63243 26.603 8.41388 26.3651 8.32387C26.1337 8.24029 25.8637 8.29813 25.6902 8.47171L23.3051 10.8567C23.183 10.9789 23.1187 11.1396 23.1187 11.3131V12.9524L21.5419 14.55C21.2807 14.4241 20.9914 14.3474 20.6823 14.3474C19.5894 14.3474 18.6959 15.241 18.6959 16.3338C18.6959 17.4331 19.5894 18.3268 20.6823 18.3268C21.7816 18.3268 22.6751 17.4331 22.6751 16.3338C22.6751 16.0159 22.5925 15.7191 22.4581 15.452L24.0316 13.8524H25.6645C25.8316 13.8524 25.9987 13.7882 26.1209 13.666L28.4994 11.2874C28.6795 11.1138 28.7373 10.8438 28.6537 10.6125Z" fill="#2D79EC"/>
</svg>
