<svg width="106" height="32" viewBox="0 0 106 32" fill="none" xmlns="http://www.w3.org/2000/svg">
<rect width="106" height="32" rx="4" fill="#F4F4F4"/>
<g clip-path="url(#clip0_174_1370)">
<path d="M21 17.575C20.1562 17.575 19.425 16.9 19.425 16C19.425 15.1562 20.1 14.425 21 14.425C21.8437 14.425 22.575 15.1 22.575 16C22.575 16.8437 21.8437 17.575 21 17.575Z" fill="#2D79EC"/>
<path fill-rule="evenodd" clip-rule="evenodd" d="M22.9125 12.175H19.0875C18.6375 12.2312 18.4125 12.2875 18.2437 12.3437C18.0187 12.4 17.85 12.5125 17.6812 12.6812C17.5477 12.8148 17.4846 12.9483 17.4084 13.1097C17.3883 13.1522 17.3672 13.1968 17.3437 13.2437C17.335 13.2698 17.325 13.2973 17.3142 13.3267C17.2554 13.4875 17.175 13.7071 17.175 14.0875V17.9125C17.2312 18.3625 17.2875 18.5875 17.3437 18.7562C17.4 18.9812 17.5125 19.15 17.6812 19.3187C17.8148 19.4523 17.9483 19.5153 18.1097 19.5916C18.1523 19.6117 18.1968 19.6328 18.2437 19.6562C18.2698 19.665 18.2973 19.675 18.3267 19.6858C18.4875 19.7446 18.7071 19.825 19.0875 19.825H22.9125C23.3625 19.7687 23.5875 19.7125 23.7562 19.6562C23.9812 19.6 24.15 19.4875 24.3187 19.3187C24.4523 19.1852 24.5153 19.0517 24.5916 18.8903C24.6117 18.8477 24.6328 18.8032 24.6562 18.7562C24.665 18.7301 24.675 18.7027 24.6858 18.6733C24.7446 18.5125 24.825 18.2929 24.825 17.9125V14.0875C24.7687 13.6375 24.7125 13.4125 24.6562 13.2437C24.6 13.0187 24.4875 12.85 24.3187 12.6812C24.1852 12.5477 24.0517 12.4846 23.8903 12.4084C23.8478 12.3883 23.8031 12.3672 23.7562 12.3437C23.7301 12.335 23.7027 12.325 23.6733 12.3142C23.5125 12.2554 23.2929 12.175 22.9125 12.175ZM21 13.5812C19.65 13.5812 18.5812 14.65 18.5812 16C18.5812 17.35 19.65 18.4187 21 18.4187C22.35 18.4187 23.4187 17.35 23.4187 16C23.4187 14.65 22.35 13.5812 21 13.5812ZM24.0375 13.525C24.0375 13.8357 23.7857 14.0875 23.475 14.0875C23.1643 14.0875 22.9125 13.8357 22.9125 13.525C22.9125 13.2143 23.1643 12.9625 23.475 12.9625C23.7857 12.9625 24.0375 13.2143 24.0375 13.525Z" fill="#2D79EC"/>
<path fill-rule="evenodd" clip-rule="evenodd" d="M12 16C12 11.0294 16.0294 7 21 7C25.9706 7 30 11.0294 30 16C30 20.9706 25.9706 25 21 25C16.0294 25 12 20.9706 12 16ZM19.0875 11.3312H22.9125C23.4187 11.3875 23.7562 11.4438 24.0375 11.5563C24.375 11.725 24.6 11.8375 24.8812 12.1188C25.1625 12.4 25.3313 12.6813 25.4437 12.9625C25.5562 13.2438 25.6687 13.5813 25.6687 14.0875V17.9125C25.6125 18.4187 25.5562 18.7562 25.4437 19.0375C25.275 19.375 25.1625 19.6 24.8812 19.8812C24.6 20.1625 24.3187 20.3313 24.0375 20.4437C23.7562 20.5562 23.4187 20.6687 22.9125 20.6687H19.0875C18.5813 20.6125 18.2438 20.5562 17.9625 20.4437C17.625 20.275 17.4 20.1625 17.1188 19.8812C16.8375 19.6 16.6688 19.3187 16.5563 19.0375C16.4438 18.7562 16.3312 18.4187 16.3312 17.9125V14.0875C16.3875 13.5813 16.4438 13.2438 16.5563 12.9625C16.725 12.625 16.8375 12.4 17.1188 12.1188C17.4 11.8375 17.6813 11.6688 17.9625 11.5563C18.2438 11.4438 18.5813 11.3312 19.0875 11.3312Z" fill="#2D79EC"/>
</g>
<path d="M42.2559 20H40.7441V11.5449H42.2559V20ZM43.5011 20V13.5957H44.9015V14.709H44.9308C45.3116 13.9297 46.0148 13.5195 46.9991 13.5195C48.4171 13.5195 49.2843 14.416 49.2843 15.8984V20H47.8253V16.1855C47.8253 15.2715 47.3331 14.7559 46.4542 14.7559C45.5577 14.7559 44.9601 15.3887 44.9601 16.3262V20H43.5011ZM50.2659 15.4473C50.2659 14.2871 51.2971 13.5078 52.8381 13.5078C54.3147 13.5078 55.3459 14.3047 55.3752 15.4648H54.0159C53.969 14.9258 53.5061 14.5859 52.8088 14.5859C52.1291 14.5859 51.6838 14.8965 51.6838 15.3652C51.6838 15.7227 51.9827 15.9688 52.6155 16.1152L53.7405 16.373C55.0295 16.6719 55.5217 17.1582 55.5217 18.1016C55.5217 19.291 54.4084 20.0938 52.803 20.0938C51.2327 20.0938 50.1955 19.3027 50.1018 18.1133H51.5373C51.6252 18.6934 52.0998 19.0156 52.8616 19.0156C53.6057 19.0156 54.0686 18.7168 54.0686 18.2422C54.0686 17.8672 53.8342 17.668 53.1955 17.5156L52.0354 17.2344C50.8635 16.959 50.2659 16.3555 50.2659 15.4473ZM56.7845 12.166H58.2435V13.5957H59.4564V14.7266H58.2435V18.1016C58.2435 18.6289 58.4896 18.8809 59.017 18.8809C59.1576 18.8809 59.3568 18.8633 59.4505 18.8516V19.9707C59.2923 20.0059 58.9935 20.0293 58.683 20.0293C57.3236 20.0293 56.7845 19.5371 56.7845 18.3008V14.7266H55.9115V13.5957H56.7845V12.166ZM62.6352 18.9512C63.52 18.9512 64.1938 18.4004 64.1938 17.6211V17.1348L62.729 17.2285C61.9321 17.2812 61.5102 17.5859 61.5102 18.1074C61.5102 18.623 61.9555 18.9512 62.6352 18.9512ZM62.2075 20.0703C60.9477 20.0703 60.0454 19.3027 60.0454 18.166C60.0454 17.0234 60.9184 16.373 62.5298 16.2734L64.1938 16.1738V15.7051C64.1938 15.0254 63.7368 14.6562 62.9516 14.6562C62.2895 14.6562 61.8149 15.002 61.7153 15.5176H60.3677C60.4028 14.3457 61.4927 13.5078 62.9985 13.5078C64.5981 13.5078 65.6352 14.3398 65.6352 15.6113V20H64.2348V18.9688H64.1997C63.8481 19.6543 63.0571 20.0703 62.2075 20.0703ZM69.5465 18.7988C70.5191 18.7988 71.1578 18.0137 71.1578 16.7832C71.1578 15.5527 70.5191 14.7383 69.5465 14.7383C68.5855 14.7383 67.9645 15.5352 67.9645 16.7832C67.9645 18.0254 68.5855 18.7988 69.5465 18.7988ZM69.5465 22.3203C67.9469 22.3203 66.816 21.5996 66.7047 20.4805H68.1637C68.2867 20.9434 68.8609 21.2305 69.5934 21.2305C70.5426 21.2305 71.1578 20.7441 71.1578 19.9531V18.8633H71.1227C70.7828 19.5488 70.0328 19.9766 69.1129 19.9766C67.5309 19.9766 66.4703 18.7344 66.4703 16.7773C66.4703 14.791 67.5133 13.5254 69.1422 13.5254C70.0562 13.5254 70.7887 13.9648 71.1578 14.6738H71.1871V13.5957H72.6168V19.8418C72.6168 21.3711 71.4273 22.3203 69.5465 22.3203ZM73.7448 20V13.5957H75.1452V14.709H75.1745C75.3796 13.959 75.9538 13.5254 76.7097 13.5254C76.862 13.5254 77.0495 13.5488 77.155 13.584V14.9141C77.0378 14.8613 76.7741 14.8262 76.5749 14.8262C75.7195 14.8262 75.2038 15.3828 75.2038 16.2852V20H73.7448ZM80.0995 18.9512C80.9842 18.9512 81.658 18.4004 81.658 17.6211V17.1348L80.1932 17.2285C79.3963 17.2812 78.9745 17.5859 78.9745 18.1074C78.9745 18.623 79.4198 18.9512 80.0995 18.9512ZM79.6717 20.0703C78.412 20.0703 77.5096 19.3027 77.5096 18.166C77.5096 17.0234 78.3827 16.373 79.994 16.2734L81.658 16.1738V15.7051C81.658 15.0254 81.201 14.6562 80.4159 14.6562C79.7537 14.6562 79.2791 15.002 79.1795 15.5176H77.8319C77.867 14.3457 78.9569 13.5078 80.4627 13.5078C82.0623 13.5078 83.0995 14.3398 83.0995 15.6113V20H81.6991V18.9688H81.6639C81.3123 19.6543 80.5213 20.0703 79.6717 20.0703ZM84.2041 20V13.5957H85.6045V14.7207H85.6338C85.915 13.9766 86.6123 13.5195 87.456 13.5195C88.3584 13.5195 89.0088 13.9766 89.249 14.791H89.2783C89.5888 14.0059 90.3564 13.5195 91.2763 13.5195C92.5361 13.5195 93.3681 14.3633 93.3681 15.6406V20H91.9091V15.998C91.9091 15.2012 91.4873 14.75 90.7373 14.75C90.0048 14.75 89.4951 15.2949 89.4951 16.0742V20H88.0771V15.916C88.0771 15.1953 87.6318 14.75 86.9228 14.75C86.1845 14.75 85.663 15.3184 85.663 16.1094V20H84.2041Z" fill="#27293E"/>
<defs>
<clipPath id="clip0_174_1370">
<rect width="18" height="18" fill="white" transform="translate(12 7)"/>
</clipPath>
</defs>
</svg>
