<svg width="100" height="32" viewBox="0 0 100 32" fill="none" xmlns="http://www.w3.org/2000/svg">
<rect x="0.5" width="99" height="32" rx="4" fill="#F4F4F4"/>
<g clip-path="url(#clip0_174_1382)">
<path d="M22.9625 16L20.6 14.65V17.35L22.9625 16Z" fill="#2D79EC"/>
<path fill-rule="evenodd" clip-rule="evenodd" d="M12.5 16C12.5 11.0294 16.5294 7 21.5 7C26.4706 7 30.5 11.0294 30.5 16C30.5 20.9706 26.4706 25 21.5 25C16.5294 25 12.5 20.9706 12.5 16ZM24.9875 13.0187C25.3813 13.1312 25.6625 13.4125 25.775 13.8063C26 14.5375 26 16 26 16C26 16 26 17.4625 25.8313 18.1937C25.7188 18.5875 25.4375 18.8687 25.0437 18.9812C24.3125 19.15 21.5 19.15 21.5 19.15C21.5 19.15 18.6312 19.15 17.9562 18.9812C17.5625 18.8687 17.2812 18.5875 17.1688 18.1937C17 17.4625 17 16 17 16C17 16 17 14.5375 17.1125 13.8063C17.225 13.4125 17.5063 13.1312 17.9 13.0187C18.6312 12.85 21.4437 12.85 21.4437 12.85C21.4437 12.85 24.3125 12.85 24.9875 13.0187Z" fill="#2D79EC"/>
</g>
<path d="M45.1289 20H43.623V16.666L40.6582 11.5449H42.3164L44.3672 15.2246H44.4023L46.4473 11.5449H48.0938L45.1289 16.666V20ZM50.423 20.0938C48.5363 20.0938 47.3409 18.8398 47.3409 16.7949C47.3409 14.7734 48.548 13.5078 50.423 13.5078C52.3097 13.5078 53.5109 14.7676 53.5109 16.7949C53.5109 18.8398 52.3214 20.0938 50.423 20.0938ZM50.423 18.9277C51.4308 18.9277 52.0284 18.1426 52.0284 16.8008C52.0284 15.459 51.4249 14.6738 50.423 14.6738C49.4269 14.6738 48.8234 15.4648 48.8234 16.8008C48.8234 18.1426 49.4269 18.9277 50.423 18.9277ZM60.1233 13.5957V20H58.7229V18.8809H58.6877C58.3362 19.6602 57.6213 20.082 56.6487 20.082C55.2541 20.082 54.3401 19.1797 54.3401 17.7031V13.5957H55.7991V17.4102C55.7991 18.3418 56.3088 18.8457 57.1702 18.8457C58.0608 18.8457 58.6643 18.2188 58.6643 17.2695V13.5957H60.1233ZM64.4564 20H62.9447V12.8223H60.3783V11.5449H67.0228V12.8223H64.4564V20ZM72.9145 13.5957V20H71.5141V18.8809H71.479C71.1274 19.6602 70.4126 20.082 69.4399 20.082C68.0454 20.082 67.1313 19.1797 67.1313 17.7031V13.5957H68.5903V17.4102C68.5903 18.3418 69.1001 18.8457 69.9614 18.8457C70.852 18.8457 71.4555 18.2188 71.4555 17.2695V13.5957H72.9145ZM77.5758 20.0703C76.6383 20.0703 75.9176 19.6484 75.5426 18.9102H75.5074V20H74.0836V11.1523H75.5426V14.6738H75.5777C75.9469 13.9473 76.6734 13.5254 77.5816 13.5254C79.193 13.5254 80.2301 14.791 80.2301 16.8008C80.2301 18.8047 79.1988 20.0703 77.5758 20.0703ZM77.1422 14.7383C76.1813 14.7383 75.5367 15.5703 75.5367 16.8008C75.5367 18.0371 76.1813 18.8574 77.1422 18.8574C78.109 18.8574 78.7359 18.0547 78.7359 16.8008C78.7359 15.5469 78.1031 14.7383 77.1422 14.7383ZM83.8308 14.6445C82.9753 14.6445 82.3542 15.2656 82.2898 16.1797H85.3249C85.2956 15.2539 84.698 14.6445 83.8308 14.6445ZM85.3308 18.0957H86.7019C86.5144 19.2793 85.3777 20.0938 83.8835 20.0938C81.9909 20.0938 80.8191 18.8398 80.8191 16.8242C80.8191 14.8086 81.9968 13.5078 83.8308 13.5078C85.6237 13.5078 86.7605 14.7324 86.7605 16.6719V17.1523H82.278V17.2402C82.278 18.2715 82.9343 18.957 83.9128 18.957C84.6159 18.957 85.1609 18.623 85.3308 18.0957Z" fill="#27293E"/>
<defs>
<clipPath id="clip0_174_1382">
<rect width="18" height="18" fill="white" transform="translate(12.5 7)"/>
</clipPath>
</defs>
</svg>
