<svg width="43" height="32" viewBox="0 0 43 32" fill="none" xmlns="http://www.w3.org/2000/svg">
<rect x="0.5" width="42" height="32" rx="4" fill="#F4F4F4"/>
<rect x="0.5" width="42" height="32" rx="4" fill="#F4F4F4"/>
<g clip-path="url(#clip0_174_1405)">
<path d="M21.5 7C16.5296 7 12.5 11.0296 12.5 16C12.5 20.9704 16.5296 25 21.5 25C26.4704 25 30.5 20.9704 30.5 16C30.5 11.0296 26.4704 7 21.5 7ZM24.393 17.7054C23.5689 18.6346 22.6665 19.4952 21.8396 20.4213C21.6786 20.6494 21.4047 20.6673 21.2096 20.4634C20.395 19.6077 19.5763 18.7552 18.7666 17.8949C18.2625 17.3692 17.9158 16.7127 17.7657 16C17.2665 13.6445 19.0812 11.4216 21.4838 11.3945C24.836 11.4153 26.4767 15.345 24.393 17.7054Z" fill="#2D79EC"/>
<path d="M21.5046 13.7598C21.2569 13.7587 21.0145 13.831 20.808 13.9678C20.6015 14.1046 20.4403 14.2996 20.3448 14.5281C20.2493 14.7566 20.2238 15.0084 20.2715 15.2514C20.3193 15.4944 20.4381 15.7178 20.613 15.8932C20.7878 16.0686 21.0108 16.1881 21.2537 16.2366C21.4966 16.2851 21.7484 16.2604 21.9772 16.1656C22.206 16.0708 22.4015 15.9102 22.5389 15.7042C22.6764 15.4981 22.7495 15.2559 22.7491 15.0082C22.7484 14.678 22.6171 14.3615 22.384 14.1277C22.1509 13.8938 21.8348 13.7616 21.5046 13.7598Z" fill="#2D79EC"/>
</g>
<defs>
<clipPath id="clip0_174_1405">
<rect width="18" height="18" fill="white" transform="translate(12.5 7)"/>
</clipPath>
</defs>
</svg>
