<svg width="124" height="32" viewBox="0 0 124 32" fill="none" xmlns="http://www.w3.org/2000/svg">
<rect width="124" height="32" rx="4" fill="#F4F4F4"/>
<rect width="124" height="32" rx="4" fill="#F4F4F4"/>
<g clip-path="url(#clip0_174_1345)">
<path d="M21 7C19.22 7 17.4799 7.52784 15.9999 8.51677C14.5198 9.50571 13.3663 10.9113 12.6851 12.5558C12.0039 14.2004 11.8257 16.01 12.1729 17.7558C12.5202 19.5016 13.3774 21.1053 14.636 22.364C15.8947 23.6226 17.4984 24.4798 19.2442 24.8271C20.99 25.1743 22.7996 24.9961 24.4442 24.3149C26.0887 23.6337 27.4943 22.4802 28.4832 21.0001C29.4722 19.5201 30 17.78 30 16C29.9969 13.614 29.0476 11.3267 27.3605 9.63952C25.6733 7.95238 23.386 7.00316 21 7ZM22.1925 18.7788L21.3938 19.5775C21.1353 19.8397 20.8269 20.0474 20.4868 20.1884C20.1468 20.3295 19.7819 20.401 19.4138 20.3988C18.8581 20.3996 18.3148 20.2356 17.8524 19.9276C17.39 19.6195 17.0294 19.1812 16.8162 18.6681C16.603 18.155 16.5468 17.5902 16.6548 17.0452C16.7627 16.5001 17.0299 15.9994 17.4225 15.6063L18.2213 14.8075C18.272 14.7542 18.3331 14.7117 18.4008 14.6827C18.4685 14.6537 18.5414 14.6387 18.615 14.6387C18.6886 14.6387 18.7615 14.6537 18.8292 14.6827C18.8969 14.7117 18.958 14.7542 19.0088 14.8075C19.0622 14.8594 19.1046 14.9215 19.1336 14.9901C19.1626 15.0587 19.1775 15.1324 19.1775 15.2069C19.1775 15.2813 19.1626 15.3551 19.1336 15.4237C19.1046 15.4923 19.0622 15.5543 19.0088 15.6063L18.21 16.3938C17.8982 16.7122 17.7244 17.1406 17.7263 17.5863C17.7232 17.8072 17.7645 18.0266 17.8476 18.2314C17.9307 18.4362 18.0539 18.6223 18.21 18.7788C18.3671 18.9365 18.5538 19.0617 18.7594 19.1471C18.965 19.2326 19.1855 19.2765 19.4081 19.2765C19.6308 19.2765 19.8512 19.2326 20.0568 19.1471C20.2624 19.0617 20.4492 18.9365 20.6063 18.7788L21.3938 17.9913C21.4457 17.9379 21.5078 17.8954 21.5764 17.8664C21.6449 17.8374 21.7187 17.8225 21.7931 17.8225C21.8676 17.8225 21.9413 17.8374 22.0099 17.8664C22.0785 17.8954 22.1406 17.9379 22.1925 17.9913C22.2458 18.042 22.2883 18.1031 22.3173 18.1708C22.3463 18.2385 22.3613 18.3114 22.3613 18.385C22.3613 18.4586 22.3463 18.5315 22.3173 18.5992C22.2883 18.6669 22.2458 18.728 22.1925 18.7788ZM22.5863 15.2013L20.2013 17.5863C20.1505 17.6396 20.0894 17.682 20.0217 17.711C19.954 17.7401 19.8811 17.755 19.8075 17.755C19.7339 17.755 19.661 17.7401 19.5933 17.711C19.5256 17.682 19.4645 17.6396 19.4138 17.5863C19.3604 17.5355 19.318 17.4744 19.289 17.4067C19.2599 17.339 19.245 17.2661 19.245 17.1925C19.245 17.1189 19.2599 17.046 19.289 16.9783C19.318 16.9106 19.3604 16.8495 19.4138 16.7988L21.7988 14.4138C21.8503 14.3612 21.9117 14.3193 21.9795 14.2907C22.0473 14.262 22.1201 14.247 22.1937 14.2467C22.2673 14.2463 22.3402 14.2605 22.4083 14.2885C22.4764 14.3165 22.5382 14.3577 22.5903 14.4098C22.6423 14.4618 22.6835 14.5236 22.7115 14.5917C22.7395 14.6598 22.7537 14.7327 22.7534 14.8063C22.753 14.8799 22.738 14.9527 22.7093 15.0205C22.6807 15.0883 22.6388 15.1497 22.5863 15.2013ZM24.5775 16.3938L23.7788 17.1925C23.7286 17.2466 23.6676 17.2896 23.5998 17.3186C23.532 17.3477 23.4588 17.3622 23.385 17.3613C23.3114 17.3611 23.2386 17.3461 23.1709 17.3171C23.1032 17.2881 23.0421 17.2457 22.9913 17.1925C22.9379 17.1406 22.8954 17.0785 22.8664 17.0099C22.8374 16.9413 22.8225 16.8676 22.8225 16.7931C22.8225 16.7187 22.8374 16.6449 22.8664 16.5763C22.8954 16.5077 22.9379 16.4457 22.9913 16.3938L23.79 15.6063C24.1018 15.2878 24.2756 14.8594 24.2738 14.4138C24.2768 14.1928 24.2355 13.9734 24.1524 13.7686C24.0693 13.5638 23.9461 13.3777 23.79 13.2213C23.6329 13.0635 23.4462 12.9383 23.2406 12.8529C23.035 12.7674 22.8145 12.7235 22.5919 12.7235C22.3692 12.7235 22.1488 12.7674 21.9432 12.8529C21.7376 12.9383 21.5509 13.0635 21.3938 13.2213L20.6063 14.0088C20.5543 14.0621 20.4923 14.1046 20.4237 14.1336C20.3551 14.1626 20.2813 14.1775 20.2069 14.1775C20.1324 14.1775 20.0587 14.1626 19.9901 14.1336C19.9215 14.1046 19.8594 14.0621 19.8075 14.0088C19.7542 13.958 19.7117 13.8969 19.6827 13.8292C19.6537 13.7615 19.6387 13.6886 19.6387 13.615C19.6387 13.5414 19.6537 13.4685 19.6827 13.4008C19.7117 13.3331 19.7542 13.272 19.8075 13.2213L20.6063 12.4225C21.1335 11.8987 21.8468 11.6052 22.59 11.6064C23.3332 11.6076 24.0456 11.9034 24.5711 12.4289C25.0966 12.9544 25.3924 13.6668 25.3936 14.41C25.3948 15.1532 25.1013 15.8665 24.5775 16.3938Z" fill="#2D79EC"/>
</g>
<path d="M44.0957 13.5254C45.7246 13.5254 46.7617 14.791 46.7617 16.8008C46.7617 18.8047 45.7305 20.0703 44.1191 20.0703C43.1992 20.0703 42.4785 19.6543 42.1094 18.9395H42.0801V22.0566H40.6211V13.5957H42.0449V14.6738H42.0742C42.4258 13.9707 43.1992 13.5254 44.0957 13.5254ZM43.668 18.8574C44.6348 18.8574 45.2676 18.0547 45.2676 16.8008C45.2676 15.5527 44.6348 14.7383 43.668 14.7383C42.7129 14.7383 42.0742 15.5703 42.0742 16.8008C42.0742 18.0371 42.7129 18.8574 43.668 18.8574ZM47.6261 20V13.5957H49.0265V14.709H49.0558C49.2609 13.959 49.8351 13.5254 50.5909 13.5254C50.7433 13.5254 50.9308 13.5488 51.0363 13.584V14.9141C50.9191 14.8613 50.6554 14.8262 50.4562 14.8262C49.6007 14.8262 49.0851 15.3828 49.0851 16.2852V20H47.6261ZM54.303 20.0938C52.4163 20.0938 51.2209 18.8398 51.2209 16.7949C51.2209 14.7734 52.428 13.5078 54.303 13.5078C56.1897 13.5078 57.3909 14.7676 57.3909 16.7949C57.3909 18.8398 56.2014 20.0938 54.303 20.0938ZM54.303 18.9277C55.3108 18.9277 55.9084 18.1426 55.9084 16.8008C55.9084 15.459 55.3049 14.6738 54.303 14.6738C53.3069 14.6738 52.7034 15.4648 52.7034 16.8008C52.7034 18.1426 53.3069 18.9277 54.303 18.9277ZM58.6595 12.166H60.1185V13.5957H61.3314V14.7266H60.1185V18.1016C60.1185 18.6289 60.3646 18.8809 60.892 18.8809C61.0326 18.8809 61.2318 18.8633 61.3255 18.8516V19.9707C61.1673 20.0059 60.8685 20.0293 60.558 20.0293C59.1986 20.0293 58.6595 19.5371 58.6595 18.3008V14.7266H57.7865V13.5957H58.6595V12.166ZM62.2427 20V13.5957H63.643V14.709H63.6723C63.8774 13.959 64.4516 13.5254 65.2075 13.5254C65.3598 13.5254 65.5473 13.5488 65.6528 13.584V14.9141C65.5356 14.8613 65.272 14.8262 65.0727 14.8262C64.2173 14.8262 63.7016 15.3828 63.7016 16.2852V20H62.2427ZM68.5973 18.9512C69.482 18.9512 70.1559 18.4004 70.1559 17.6211V17.1348L68.691 17.2285C67.8941 17.2812 67.4723 17.5859 67.4723 18.1074C67.4723 18.623 67.9176 18.9512 68.5973 18.9512ZM68.1695 20.0703C66.9098 20.0703 66.0074 19.3027 66.0074 18.166C66.0074 17.0234 66.8805 16.373 68.4918 16.2734L70.1559 16.1738V15.7051C70.1559 15.0254 69.6988 14.6562 68.9137 14.6562C68.2516 14.6562 67.777 15.002 67.6773 15.5176H66.3297C66.3648 14.3457 67.4547 13.5078 68.9605 13.5078C70.5602 13.5078 71.5973 14.3398 71.5973 15.6113V20H70.1969V18.9688H70.1617C69.8102 19.6543 69.0191 20.0703 68.1695 20.0703ZM73.112 20V14.7266H72.239V13.5957H73.112V13.0215C73.112 11.8086 73.6745 11.293 75.0515 11.293C75.3093 11.293 75.5437 11.3105 75.7605 11.3516V12.4121C75.6316 12.3828 75.4675 12.3652 75.2917 12.3652C74.7702 12.3652 74.5534 12.582 74.5534 13.0859V13.5957H75.7663V14.7266H74.571V20H73.112ZM76.701 20V13.5957H78.16V20H76.701ZM77.4276 12.7812C76.9764 12.7812 76.6073 12.4297 76.6073 11.9785C76.6073 11.5215 76.9764 11.1758 77.4276 11.1758C77.8846 11.1758 78.2479 11.5215 78.2479 11.9785C78.2479 12.4297 77.8846 12.7812 77.4276 12.7812ZM84.9365 15.8633H83.5595C83.4541 15.1895 82.9502 14.6973 82.1298 14.6973C81.1689 14.6973 80.542 15.5059 80.542 16.7949C80.542 18.125 81.1748 18.9043 82.1357 18.9043C82.915 18.9043 83.4306 18.5 83.5654 17.7734H84.9423C84.8193 19.1738 83.7236 20.0938 82.124 20.0938C80.2666 20.0938 79.0595 18.8398 79.0595 16.7949C79.0595 14.791 80.2607 13.5078 82.1123 13.5078C83.788 13.5078 84.8369 14.5449 84.9365 15.8633ZM86.7208 20.0645C86.2462 20.0645 85.877 19.6953 85.877 19.2207C85.877 18.7461 86.2462 18.377 86.7208 18.377C87.1895 18.377 87.5587 18.7461 87.5587 19.2207C87.5587 19.6953 87.1895 20.0645 86.7208 20.0645ZM94.2004 15.8633H92.8234C92.718 15.1895 92.2141 14.6973 91.3937 14.6973C90.4328 14.6973 89.8059 15.5059 89.8059 16.7949C89.8059 18.125 90.4387 18.9043 91.3996 18.9043C92.1789 18.9043 92.6945 18.5 92.8293 17.7734H94.2062C94.0832 19.1738 92.9875 20.0938 91.3879 20.0938C89.5305 20.0938 88.3234 18.8398 88.3234 16.7949C88.3234 14.791 89.5246 13.5078 91.3762 13.5078C93.052 13.5078 94.1008 14.5449 94.2004 15.8633ZM97.8011 20.0938C95.9144 20.0938 94.7191 18.8398 94.7191 16.7949C94.7191 14.7734 95.9261 13.5078 97.8011 13.5078C99.6878 13.5078 100.889 14.7676 100.889 16.7949C100.889 18.8398 99.6995 20.0938 97.8011 20.0938ZM97.8011 18.9277C98.8089 18.9277 99.4066 18.1426 99.4066 16.8008C99.4066 15.459 98.803 14.6738 97.8011 14.6738C96.805 14.6738 96.2015 15.4648 96.2015 16.8008C96.2015 18.1426 96.805 18.9277 97.8011 18.9277ZM101.748 20V13.5957H103.148V14.7207H103.177C103.458 13.9766 104.156 13.5195 104.999 13.5195C105.902 13.5195 106.552 13.9766 106.792 14.791H106.822C107.132 14.0059 107.9 13.5195 108.82 13.5195C110.08 13.5195 110.912 14.3633 110.912 15.6406V20H109.453V15.998C109.453 15.2012 109.031 14.75 108.281 14.75C107.548 14.75 107.039 15.2949 107.039 16.0742V20H105.621V15.916C105.621 15.1953 105.175 14.75 104.466 14.75C103.728 14.75 103.206 15.3184 103.206 16.1094V20H101.748Z" fill="#27293E"/>
<defs>
<clipPath id="clip0_174_1345">
<rect width="18" height="18" fill="white" transform="translate(12 7)"/>
</clipPath>
</defs>
</svg>
