<svg width="42" height="32" viewBox="0 0 42 32" fill="none" xmlns="http://www.w3.org/2000/svg">
<rect width="42" height="32" rx="4" fill="#F4F4F4"/>
<rect width="42" height="32" rx="4" fill="#F4F4F4"/>
<g clip-path="url(#clip0_174_1395)">
<path d="M21 7C16.0373 7 12 11.0373 12 16C12 20.9628 16.0373 25 21 25C25.9628 25 30 20.9628 30 16C30 11.0373 25.9628 7 21 7ZM26.2418 14.533L25.4265 19.2828C25.38 19.5528 25.146 19.75 24.8722 19.75H17.1277C16.854 19.75 16.62 19.5528 16.5735 19.2828L15.7583 14.533C15.7223 14.3252 15.8063 14.1145 15.975 13.9878C16.1445 13.8603 16.3688 13.84 16.5592 13.9323L18.7297 14.989L20.5087 11.7888C20.7067 11.431 21.294 11.431 21.492 11.7888L23.271 14.989L25.4415 13.9323C25.6313 13.84 25.8562 13.8603 26.0258 13.9878C26.1938 14.1145 26.2778 14.3252 26.2418 14.533Z" fill="#2D79EC"/>
</g>
<defs>
<clipPath id="clip0_174_1395">
<rect width="18" height="18" fill="white" transform="translate(12 7)"/>
</clipPath>
</defs>
</svg>
