<svg width="18" height="18" viewBox="0 0 18 18" fill="none" xmlns="http://www.w3.org/2000/svg">
<g clip-path="url(#clip0_174_1371)">
<path d="M8.99999 10.575C8.15624 10.575 7.42499 9.89999 7.42499 8.99999C7.42499 8.15624 8.09999 7.42499 8.99999 7.42499C9.84374 7.42499 10.575 8.09999 10.575 8.99999C10.575 9.84374 9.84374 10.575 8.99999 10.575Z" fill="#2D79EC"/>
<path fill-rule="evenodd" clip-rule="evenodd" d="M10.9125 5.17499H7.08749C6.63749 5.23124 6.41249 5.28749 6.24374 5.34374C6.01874 5.39999 5.84999 5.51249 5.68124 5.68124C5.54771 5.81478 5.48462 5.94831 5.40836 6.10969C5.38827 6.15222 5.36719 6.19683 5.34374 6.24374C5.33504 6.26984 5.32499 6.29729 5.31422 6.32671C5.25537 6.48747 5.17499 6.70713 5.17499 7.08749V10.9125C5.23124 11.3625 5.28749 11.5875 5.34374 11.7562C5.39999 11.9812 5.51249 12.15 5.68124 12.3187C5.81478 12.4523 5.94831 12.5153 6.10969 12.5916C6.15228 12.6117 6.19677 12.6328 6.24374 12.6562C6.26984 12.665 6.29729 12.675 6.32671 12.6858C6.48747 12.7446 6.70713 12.825 7.08749 12.825H10.9125C11.3625 12.7687 11.5875 12.7125 11.7562 12.6562C11.9812 12.6 12.15 12.4875 12.3187 12.3187C12.4523 12.1852 12.5153 12.0517 12.5916 11.8903C12.6117 11.8477 12.6328 11.8032 12.6562 11.7562C12.665 11.7301 12.675 11.7027 12.6858 11.6733C12.7446 11.5125 12.825 11.2929 12.825 10.9125V7.08749C12.7687 6.63749 12.7125 6.41249 12.6562 6.24374C12.6 6.01874 12.4875 5.84999 12.3187 5.68124C12.1852 5.54771 12.0517 5.48462 11.8903 5.40836C11.8478 5.38828 11.8031 5.36718 11.7562 5.34374C11.7301 5.33504 11.7027 5.32498 11.6733 5.31422C11.5125 5.25537 11.2929 5.17499 10.9125 5.17499ZM8.99999 6.58124C7.64999 6.58124 6.58124 7.64999 6.58124 8.99999C6.58124 10.35 7.64999 11.4187 8.99999 11.4187C10.35 11.4187 11.4187 10.35 11.4187 8.99999C11.4187 7.64999 10.35 6.58124 8.99999 6.58124ZM12.0375 6.52499C12.0375 6.83566 11.7857 7.08749 11.475 7.08749C11.1643 7.08749 10.9125 6.83566 10.9125 6.52499C10.9125 6.21432 11.1643 5.96249 11.475 5.96249C11.7857 5.96249 12.0375 6.21432 12.0375 6.52499Z" fill="#2D79EC"/>
<path fill-rule="evenodd" clip-rule="evenodd" d="M0 9C0 4.02943 4.02943 0 9 0C13.9706 0 18 4.02943 18 9C18 13.9706 13.9706 18 9 18C4.02943 18 0 13.9706 0 9ZM7.0875 4.33125H10.9125C11.4187 4.3875 11.7562 4.44375 12.0375 4.55625C12.375 4.725 12.6 4.8375 12.8812 5.11875C13.1625 5.4 13.3313 5.68125 13.4437 5.9625C13.5562 6.24375 13.6687 6.58125 13.6687 7.0875V10.9125C13.6125 11.4187 13.5562 11.7562 13.4437 12.0375C13.275 12.375 13.1625 12.6 12.8812 12.8812C12.6 13.1625 12.3187 13.3313 12.0375 13.4437C11.7562 13.5562 11.4187 13.6687 10.9125 13.6687H7.0875C6.58125 13.6125 6.24375 13.5562 5.9625 13.4437C5.625 13.275 5.4 13.1625 5.11875 12.8812C4.8375 12.6 4.66875 12.3187 4.55625 12.0375C4.44375 11.7562 4.33125 11.4187 4.33125 10.9125V7.0875C4.3875 6.58125 4.44375 6.24375 4.55625 5.9625C4.725 5.625 4.8375 5.4 5.11875 5.11875C5.4 4.8375 5.68125 4.66875 5.9625 4.55625C6.24375 4.44375 6.58125 4.33125 7.0875 4.33125Z" fill="#2D79EC"/>
</g>
<defs>
<clipPath id="clip0_174_1371">
<rect width="18" height="18" fill="white"/>
</clipPath>
</defs>
</svg>
