<svg width="19" height="18" viewBox="0 0 19 18" fill="none" xmlns="http://www.w3.org/2000/svg">
<g clip-path="url(#clip0_174_1406)">
<path d="M9.5 0C4.52961 0 0.5 4.02961 0.5 9C0.5 13.9704 4.52961 18 9.5 18C14.4704 18 18.5 13.9704 18.5 9C18.5 4.02961 14.4704 0 9.5 0ZM12.393 10.7054C11.5689 11.6346 10.6665 12.4952 9.83961 13.4213C9.67859 13.6494 9.40473 13.6673 9.20961 13.4634C8.39504 12.6077 7.57625 11.7552 6.7666 10.8949C6.26249 10.3692 5.91575 9.71275 5.7657 9C5.26648 6.64453 7.08125 4.4216 9.48383 4.39453C12.836 4.41527 14.4767 8.34504 12.393 10.7054Z" fill="#2D79EC"/>
<path d="M9.50456 6.75984C9.25689 6.75866 9.01445 6.83104 8.80798 6.96782C8.6015 7.1046 8.44029 7.29962 8.34479 7.52813C8.24928 7.75665 8.22379 8.00838 8.27153 8.2514C8.31928 8.49443 8.43811 8.7178 8.61297 8.8932C8.78783 9.06861 9.01083 9.18813 9.25371 9.23663C9.49659 9.28513 9.74839 9.26042 9.97721 9.16562C10.206 9.07083 10.4015 8.91023 10.5389 8.70418C10.6764 8.49813 10.7495 8.25591 10.7491 8.00824C10.7484 7.67804 10.6171 7.36152 10.384 7.12767C10.1509 6.89382 9.83476 6.7616 9.50456 6.75984Z" fill="#2D79EC"/>
</g>
<defs>
<clipPath id="clip0_174_1406">
<rect width="18" height="18" fill="white" transform="translate(0.5)"/>
</clipPath>
</defs>
</svg>
