<svg width="250" height="138" viewBox="0 0 250 138" fill="none" xmlns="http://www.w3.org/2000/svg">
<g filter="url(#filter0_d_174_1430)">
<path d="M5.02744 58.9749C3.39605 46.934 11.8346 35.8504 23.8756 34.219L213.537 8.52234C225.578 6.89095 236.661 15.3295 238.293 27.3705L242.532 58.6593C244.163 70.7002 235.725 81.7838 223.684 83.4152L65.0724 104.905C61.8139 105.346 58.8827 107.115 56.9727 109.791L50.2725 119.181C46.454 124.532 38.0609 122.493 37.1237 115.986C36.5532 112.025 32.8958 109.265 28.93 109.802L24.2069 110.442C17.587 111.339 11.4935 106.699 10.5966 100.079L5.02744 58.9749Z" fill="#5F5F5F"/>
<path d="M24.136 36.1429L213.798 10.4461C224.776 8.95883 234.881 16.6526 236.369 27.6309L240.608 58.9202C242.095 69.8985 234.402 80.0038 223.423 81.4914L64.812 102.981C61.0229 103.495 57.6141 105.551 55.3929 108.663L48.6926 118.053C45.891 121.979 39.7329 120.483 39.0454 115.709C38.3228 110.693 33.6914 107.198 28.6695 107.878L23.9461 108.518C18.3888 109.271 13.2735 105.376 12.5204 99.8189L6.95124 58.714C5.46395 47.7357 13.1577 37.6304 24.136 36.1429Z" stroke="black" stroke-width="3.88257"/>
</g>
<g filter="url(#filter1_d_174_1430)">
<path d="M5.02744 58.9749C3.39605 46.934 11.8346 35.8504 23.8756 34.219L213.537 8.52234C225.578 6.89095 236.661 15.3295 238.293 27.3705L242.532 58.6593C244.163 70.7002 235.725 81.7838 223.684 83.4152L65.0724 104.905C61.8139 105.346 58.8827 107.115 56.9727 109.791L50.2725 119.181C46.454 124.532 38.0609 122.493 37.1237 115.986C36.5532 112.025 32.8958 109.265 28.93 109.802L24.2069 110.442C17.587 111.339 11.4935 106.699 10.5966 100.079L5.02744 58.9749Z" fill="#5F5F5F"/>
<path d="M5.02744 58.9749C3.39605 46.934 11.8346 35.8504 23.8756 34.219L213.537 8.52234C225.578 6.89095 236.661 15.3295 238.293 27.3705L242.532 58.6593C244.163 70.7002 235.725 81.7838 223.684 83.4152L65.0724 104.905C61.8139 105.346 58.8827 107.115 56.9727 109.791L50.2725 119.181C46.454 124.532 38.0609 122.493 37.1237 115.986C36.5532 112.025 32.8958 109.265 28.93 109.802L24.2069 110.442C17.587 111.339 11.4935 106.699 10.5966 100.079L5.02744 58.9749Z" fill="#F6D13B"/>
<path d="M24.136 36.1429L213.798 10.4461C224.776 8.95883 234.881 16.6526 236.369 27.6309L240.608 58.9202C242.095 69.8985 234.402 80.0038 223.423 81.4914L64.812 102.981C61.0229 103.495 57.6141 105.551 55.3929 108.663L48.6926 118.053C45.891 121.979 39.7329 120.483 39.0454 115.709C38.3228 110.693 33.6914 107.198 28.6695 107.878L23.9461 108.518C18.3888 109.271 13.2735 105.376 12.5204 99.8189L6.95124 58.714C5.46395 47.7357 13.1577 37.6304 24.136 36.1429Z" stroke="black" stroke-width="3.88257"/>
</g>
<path d="M99.842 39.815C99.8761 40.067 99.9593 40.3124 99.9866 40.514C101.701 53.1652 103.415 65.8162 105.136 78.5179C105.17 78.7698 105.204 79.022 105.252 79.3748C104.957 79.4147 104.662 79.4547 104.417 79.4879C88.7943 81.6046 73.1716 83.7212 57.5493 85.8378C57.0581 85.9044 56.7837 86.0955 56.481 86.4445C52.8364 91.3011 49.1919 96.1578 45.5474 101.014C45.4205 101.186 45.2445 101.364 45.033 101.649C43.7082 91.8707 42.3971 82.1932 41.0722 72.4151C41.2688 72.3885 41.5144 72.3552 41.7109 72.3286C43.4304 72.0956 45.2126 71.9568 46.8556 71.5289C50.7175 70.4924 53.0438 67.3541 53.1294 63.1849C53.1729 60.9206 52.7251 58.7228 51.4624 56.7895C49.6976 54.1029 47.1633 52.7524 44.0478 53.0205C40.2445 53.3818 36.4262 54.0018 32.5875 54.4706C32.4892 54.4839 32.3419 54.5039 32.2013 54.5742C33.731 65.8645 35.2675 77.2051 36.8108 88.5962C33.9615 88.9823 31.1121 89.3683 28.3119 89.7477C26.5227 76.5422 24.7403 63.387 22.9511 50.1814C48.6023 46.7573 74.2467 43.2828 99.842 39.815ZM84.888 75.6665C85.4638 75.4857 86.6782 75.2186 87.8094 74.706C91.337 73.0476 93.5638 70.2821 93.8104 66.1937C94.0146 62.1624 92.5185 58.8748 89.0261 56.7302C84.7149 54.0807 78.5603 54.8119 74.9415 58.3819C70.9149 62.2637 70.9388 69.0871 74.9651 72.9559C77.6072 75.4722 80.7968 76.118 84.888 75.6665ZM58.6771 78.653C60.7405 78.3735 62.7547 78.1006 64.8181 77.821C64.7771 77.5187 64.7429 77.2665 64.7088 77.0144C64.4027 74.387 63.9493 71.7793 63.7418 69.1383C63.5271 66.447 64.8601 64.47 67.311 63.7272C68.0342 63.5266 68.834 63.5209 69.6201 63.4144C69.3333 61.2975 69.0601 59.2814 68.7664 57.114C68.1345 57.251 67.496 57.3375 66.9269 57.5686C64.7421 58.4292 63.4733 60.141 62.8894 62.4785C62.8184 62.6934 62.7406 62.858 62.6696 63.0729C62.6206 63.0796 62.5647 63.0358 62.5155 63.0425C62.3106 61.5304 62.1126 60.0687 61.9009 58.5062C59.9357 58.7724 57.9706 59.0387 56.0058 59.3049C56.9221 65.6994 57.7962 72.1511 58.6771 78.653Z" fill="white"/>
<path d="M99.842 39.815C99.8761 40.067 99.9593 40.3124 99.9866 40.514C101.701 53.1652 103.415 65.8162 105.136 78.5179C105.17 78.7698 105.204 79.022 105.252 79.3748C104.957 79.4147 104.662 79.4547 104.417 79.4879C88.7943 81.6046 73.1716 83.7212 57.5493 85.8378C57.0581 85.9044 56.7837 86.0955 56.481 86.4445C52.8364 91.3011 49.1919 96.1578 45.5474 101.014C45.4205 101.186 45.2445 101.364 45.033 101.649C43.7082 91.8707 42.3971 82.1932 41.0722 72.4151C41.2688 72.3885 41.5144 72.3552 41.7109 72.3286C43.4304 72.0956 45.2126 71.9568 46.8556 71.5289C50.7175 70.4924 53.0438 67.3541 53.1294 63.1849C53.1729 60.9206 52.7251 58.7228 51.4624 56.7895C49.6976 54.1029 47.1633 52.7524 44.0478 53.0205C40.2445 53.3818 36.4262 54.0018 32.5875 54.4706C32.4892 54.4839 32.3419 54.5039 32.2013 54.5742C33.731 65.8645 35.2675 77.2051 36.8108 88.5962C33.9615 88.9823 31.1121 89.3683 28.3119 89.7477C26.5227 76.5422 24.7403 63.387 22.9511 50.1814C48.6023 46.7573 74.2467 43.2828 99.842 39.815ZM84.888 75.6665C85.4638 75.4857 86.6782 75.2186 87.8094 74.706C91.337 73.0476 93.5638 70.2821 93.8104 66.1937C94.0146 62.1624 92.5185 58.8748 89.0261 56.7302C84.7149 54.0807 78.5603 54.8119 74.9415 58.3819C70.9149 62.2637 70.9388 69.0871 74.9651 72.9559C77.6072 75.4722 80.7968 76.118 84.888 75.6665ZM58.6771 78.653C60.7405 78.3735 62.7547 78.1006 64.8181 77.821C64.7771 77.5187 64.7429 77.2665 64.7088 77.0144C64.4027 74.387 63.9493 71.7793 63.7418 69.1383C63.5271 66.447 64.8601 64.47 67.311 63.7272C68.0342 63.5266 68.834 63.5209 69.6201 63.4144C69.3333 61.2975 69.0601 59.2814 68.7664 57.114C68.1345 57.251 67.496 57.3375 66.9269 57.5686C64.7421 58.4292 63.4733 60.141 62.8894 62.4785C62.8184 62.6934 62.7406 62.858 62.6696 63.0729C62.6206 63.0796 62.5647 63.0358 62.5155 63.0425C62.3106 61.5304 62.1126 60.0687 61.9009 58.5062C59.9357 58.7724 57.9706 59.0387 56.0058 59.3049C56.9221 65.6994 57.7962 72.1511 58.6771 78.653Z" fill="black"/>
<path d="M225.024 53.5481C222.044 57.0317 218.229 58.4211 213.805 57.8912C208.925 57.3205 205.355 53.4928 204.931 48.52C204.494 43.4464 207.358 39.1061 212.119 37.6911C214.907 36.8514 217.699 36.781 220.451 37.8966C221.145 38.2133 221.803 38.6375 222.51 39.055C221.788 40.7439 221.053 42.3321 220.402 43.8061C219.351 43.4352 218.391 43.0006 217.354 42.7305C216.317 42.4604 215.236 42.6068 214.19 43.0053C212.152 43.8459 211.135 45.9343 211.554 48.2899C211.959 50.5448 213.791 52.2469 215.951 52.3136C218.217 52.4174 219.905 51.2135 221.453 49.7204C221.629 49.5426 221.756 49.3714 221.981 49.1869C222.979 50.6428 223.963 51.9981 224.954 53.4036C225.01 53.4474 225.017 53.4979 225.024 53.5481Z" fill="white"/>
<path d="M225.024 53.5481C222.044 57.0317 218.229 58.4211 213.805 57.8912C208.925 57.3205 205.355 53.4928 204.931 48.52C204.494 43.4464 207.358 39.1061 212.119 37.6911C214.907 36.8514 217.699 36.781 220.451 37.8966C221.145 38.2133 221.803 38.6375 222.51 39.055C221.788 40.7439 221.053 42.3321 220.402 43.8061C219.351 43.4352 218.391 43.0006 217.354 42.7305C216.317 42.4604 215.236 42.6068 214.19 43.0053C212.152 43.8459 211.135 45.9343 211.554 48.2899C211.959 50.5448 213.791 52.2469 215.951 52.3136C218.217 52.4174 219.905 51.2135 221.453 49.7204C221.629 49.5426 221.756 49.3714 221.981 49.1869C222.979 50.6428 223.963 51.9981 224.954 53.4036C225.01 53.4474 225.017 53.4979 225.024 53.5481Z" fill="black"/>
<path d="M157.99 65.4031C157.88 64.5968 157.785 63.8911 157.669 63.0342C157.499 63.2623 157.372 63.4337 157.246 63.6048C155.334 66.4815 151.226 67.5513 148.265 66.0021C144.988 64.3416 143.751 59.2736 147.059 56.3618C148.72 54.9562 150.665 54.1793 152.702 53.6981C153.67 53.4642 154.646 53.2807 155.622 53.0971C155.717 51.955 154.998 51.0772 153.834 50.9783C152.004 50.7643 150.409 51.545 148.939 52.5141C148.482 52.8326 148.032 53.2016 147.532 53.5772C146.584 52.1146 145.642 50.7024 144.644 49.2463C146.059 47.8741 147.69 46.9859 149.453 46.3364C151.743 45.5129 154.087 45.0926 156.519 45.687C159.518 46.4098 161.489 48.4012 162.004 51.4625C162.732 55.7268 163.221 60.0747 163.808 64.4094C163.815 64.4599 163.773 64.5167 163.787 64.6177C161.92 64.8706 159.955 65.1369 157.99 65.4031ZM156.302 57.0086C155.095 56.9667 153.27 57.5221 152.404 58.1526C151.539 58.7831 151.256 59.6428 151.673 60.5102C152.028 61.2833 152.974 61.617 153.936 61.3327C155.67 60.8412 156.715 58.9545 156.302 57.0086Z" fill="white"/>
<path d="M157.99 65.4031C157.88 64.5968 157.785 63.8911 157.669 63.0342C157.499 63.2623 157.372 63.4337 157.246 63.6048C155.334 66.4815 151.226 67.5513 148.265 66.0021C144.988 64.3416 143.751 59.2736 147.059 56.3618C148.72 54.9562 150.665 54.1793 152.702 53.6981C153.67 53.4642 154.646 53.2807 155.622 53.0971C155.717 51.955 154.998 51.0772 153.834 50.9783C152.004 50.7643 150.409 51.545 148.939 52.5141C148.482 52.8326 148.032 53.2016 147.532 53.5772C146.584 52.1146 145.642 50.7024 144.644 49.2463C146.059 47.8741 147.69 46.9859 149.453 46.3364C151.743 45.5129 154.087 45.0926 156.519 45.687C159.518 46.4098 161.489 48.4012 162.004 51.4625C162.732 55.7268 163.221 60.0747 163.808 64.4094C163.815 64.4599 163.773 64.5167 163.787 64.6177C161.92 64.8706 159.955 65.1369 157.99 65.4031ZM156.302 57.0086C155.095 56.9667 153.27 57.5221 152.404 58.1526C151.539 58.7831 151.256 59.6428 151.673 60.5102C152.028 61.2833 152.974 61.617 153.936 61.3327C155.67 60.8412 156.715 58.9545 156.302 57.0086Z" fill="black"/>
<path d="M113.639 49.3406C110.888 49.7133 108.186 50.0794 105.484 50.4455C105.225 48.5302 104.965 46.6149 104.706 44.6996C112.32 43.6679 119.886 42.6428 127.501 41.6112C127.76 43.5264 128.013 45.3914 128.272 47.3067C125.57 47.6727 122.917 48.0322 120.166 48.4049C121.157 55.7133 122.126 62.8705 123.11 70.1286C120.899 70.4281 118.786 70.7144 116.576 71.0139C115.599 63.8062 114.623 56.5986 113.639 49.3406Z" fill="white"/>
<path d="M113.639 49.3406C110.888 49.7133 108.186 50.0794 105.484 50.4455C105.225 48.5302 104.965 46.6149 104.706 44.6996C112.32 43.6679 119.886 42.6428 127.501 41.6112C127.76 43.5264 128.013 45.3914 128.272 47.3067C125.57 47.6727 122.917 48.0322 120.166 48.4049C121.157 55.7133 122.126 62.8705 123.11 70.1286C120.899 70.4281 118.786 70.7144 116.576 71.0139C115.599 63.8062 114.623 56.5986 113.639 49.3406Z" fill="black"/>
<path d="M169.241 63.8782C168.599 59.1404 167.957 54.4024 167.315 49.6645C166.529 49.771 165.792 49.8709 165.006 49.9774C164.767 48.2133 164.542 46.55 164.303 44.7859C165.04 44.686 165.777 44.5862 166.661 44.4664C166.579 43.8615 166.448 43.2634 166.422 42.7023C166.314 39.6886 167.676 37.5536 170.304 36.2736C172.18 35.3521 174.18 34.9784 176.327 34.9442C176.58 36.8091 176.826 38.6236 177.072 40.4381C176.292 40.595 175.555 40.6949 174.832 40.8955C174.397 41.0059 173.933 41.274 173.567 41.5289C172.934 42.0253 172.98 42.7376 173.139 43.5374C174.269 43.3843 175.448 43.2245 176.627 43.0648C176.866 44.8289 177.098 46.5426 177.33 48.2563C176.151 48.416 175.021 48.5691 173.842 48.7289C174.491 53.5172 175.126 58.2047 175.768 62.9424C173.613 63.2858 171.452 63.5786 169.241 63.8782Z" fill="white"/>
<path d="M169.241 63.8782C168.599 59.1404 167.957 54.4024 167.315 49.6645C166.529 49.771 165.792 49.8709 165.006 49.9774C164.767 48.2133 164.542 46.55 164.303 44.7859C165.04 44.686 165.777 44.5862 166.661 44.4664C166.579 43.8615 166.448 43.2634 166.422 42.7023C166.314 39.6886 167.676 37.5536 170.304 36.2736C172.18 35.3521 174.18 34.9784 176.327 34.9442C176.58 36.8091 176.826 38.6236 177.072 40.4381C176.292 40.595 175.555 40.6949 174.832 40.8955C174.397 41.0059 173.933 41.274 173.567 41.5289C172.934 42.0253 172.98 42.7376 173.139 43.5374C174.269 43.3843 175.448 43.2245 176.627 43.0648C176.866 44.8289 177.098 46.5426 177.33 48.2563C176.151 48.416 175.021 48.5691 173.842 48.7289C174.491 53.5172 175.126 58.2047 175.768 62.9424C173.613 63.2858 171.452 63.5786 169.241 63.8782Z" fill="black"/>
<path d="M190.665 32.9504C190.924 34.8657 191.17 36.6802 191.409 38.4444C190.489 38.6716 189.605 38.7914 188.748 39.1128C187.505 39.5379 187.25 40.2397 187.532 41.5873C188.662 41.4342 189.841 41.2745 191.02 41.1147C191.259 42.8788 191.492 44.5925 191.731 46.3566C190.601 46.5097 189.422 46.6695 188.243 46.8292C188.891 51.6175 189.526 56.305 190.168 61.0428C188.007 61.3357 185.845 61.6285 183.684 61.9214C183.042 57.1836 182.407 52.4961 181.758 47.7078C180.923 47.821 180.186 47.9208 179.4 48.0273C179.161 46.2632 178.935 44.5999 178.696 42.8358C179.433 42.736 180.219 42.6295 181.054 42.5163C181.007 42.1635 180.966 41.8611 180.932 41.6091C180.538 37.9667 181.788 35.7443 185.027 34.1762C186.714 33.3317 188.623 33.0217 190.665 32.9504Z" fill="white"/>
<path d="M190.665 32.9504C190.924 34.8657 191.17 36.6802 191.409 38.4444C190.489 38.6716 189.605 38.7914 188.748 39.1128C187.505 39.5379 187.25 40.2397 187.532 41.5873C188.662 41.4342 189.841 41.2745 191.02 41.1147C191.259 42.8788 191.492 44.5925 191.731 46.3566C190.601 46.5097 189.422 46.6695 188.243 46.8292C188.891 51.6175 189.526 56.305 190.168 61.0428C188.007 61.3357 185.845 61.6285 183.684 61.9214C183.042 57.1836 182.407 52.4961 181.758 47.7078C180.923 47.821 180.186 47.9208 179.4 48.0273C179.161 46.2632 178.935 44.5999 178.696 42.8358C179.433 42.736 180.219 42.6295 181.054 42.5163C181.007 42.1635 180.966 41.8611 180.932 41.6091C180.538 37.9667 181.788 35.7443 185.027 34.1762C186.714 33.3317 188.623 33.0217 190.665 32.9504Z" fill="black"/>
<path d="M128.882 49.2253C130.946 48.9458 132.96 48.6729 135.023 48.3933C135.228 49.9054 135.426 51.3671 135.631 52.8792C136.534 49.5745 138.394 47.4233 141.853 47.1086C142.16 49.3768 142.447 51.4937 142.741 53.661C141.955 53.7675 141.155 53.7732 140.432 53.9739C138.122 54.6462 136.761 56.4216 136.899 58.918C137.01 61.2128 137.423 63.5181 137.688 65.8432C137.79 66.5993 137.886 67.305 137.995 68.1113C135.833 68.4042 133.721 68.6904 131.559 68.9833C130.671 62.4309 129.777 55.8281 128.882 49.2253Z" fill="white"/>
<path d="M128.882 49.2253C130.946 48.9458 132.96 48.6729 135.023 48.3933C135.228 49.9054 135.426 51.3671 135.631 52.8792C136.534 49.5745 138.394 47.4233 141.853 47.1086C142.16 49.3768 142.447 51.4937 142.741 53.661C141.955 53.7675 141.155 53.7732 140.432 53.9739C138.122 54.6462 136.761 56.4216 136.899 58.918C137.01 61.2128 137.423 63.5181 137.688 65.8432C137.79 66.5993 137.886 67.305 137.995 68.1113C135.833 68.4042 133.721 68.6904 131.559 68.9833C130.671 62.4309 129.777 55.8281 128.882 49.2253Z" fill="black"/>
<path d="M203.041 59.2997C200.88 59.5926 198.767 59.8788 196.606 60.1717C195.711 53.5688 194.823 47.0164 193.929 40.4136C196.09 40.1207 198.203 39.8345 200.364 39.5417C201.259 46.1445 202.147 52.6968 203.041 59.2997Z" fill="white"/>
<path d="M203.041 59.2997C200.88 59.5926 198.767 59.8788 196.606 60.1717C195.711 53.5688 194.823 47.0164 193.929 40.4136C196.09 40.1207 198.203 39.8345 200.364 39.5417C201.259 46.1445 202.147 52.6968 203.041 59.2997Z" fill="black"/>
<path d="M40.2844 66.9783C39.9293 64.3574 39.5879 61.8372 39.2396 59.2667C39.387 59.2467 39.5276 59.1763 39.6749 59.1564C40.5592 59.0366 41.4995 58.9605 42.3769 58.7903C45.0653 58.3234 46.441 59.9848 46.6637 62.3671C46.8864 64.7493 45.7376 66.2395 43.4286 66.5523C42.3969 66.6921 41.3652 66.8319 40.2844 66.9783Z" fill="white"/>
<path d="M40.2844 66.9783C39.9293 64.3574 39.5879 61.8372 39.2396 59.2667C39.387 59.2467 39.5276 59.1763 39.6749 59.1564C40.5592 59.0366 41.4995 58.9605 42.3769 58.7903C45.0653 58.3234 46.441 59.9848 46.6637 62.3671C46.8864 64.7493 45.7376 66.2395 43.4286 66.5523C42.3969 66.6921 41.3652 66.8319 40.2844 66.9783Z" fill="black"/>
<path d="M199.916 36.9839C197.804 37.2701 195.74 37.5497 193.628 37.8359C193.396 36.1222 193.171 34.4589 192.938 32.7452C195.051 32.459 197.114 32.1794 199.227 31.8932C199.459 33.6069 199.684 35.2702 199.916 36.9839Z" fill="white"/>
<path d="M199.916 36.9839C197.804 37.2701 195.74 37.5497 193.628 37.8359C193.396 36.1222 193.171 34.4589 192.938 32.7452C195.051 32.459 197.114 32.1794 199.227 31.8932C199.459 33.6069 199.684 35.2702 199.916 36.9839Z" fill="black"/>
<path d="M87.4304 64.9026C87.1216 62.9939 86.2155 61.4742 84.317 60.7562C82.1036 59.9269 79.6936 60.972 78.7319 63.1041C77.6568 65.5082 78.5289 68.6237 80.5941 69.8323C82.2248 70.7921 83.9158 70.717 85.4767 69.6841C87.1784 68.5809 87.6474 66.875 87.4304 64.9026Z" fill="white"/>
<path d="M87.4304 64.9026C87.1216 62.9939 86.2155 61.4742 84.317 60.7562C82.1036 59.9269 79.6936 60.972 78.7319 63.1041C77.6568 65.5082 78.5289 68.6237 80.5941 69.8323C82.2248 70.7921 83.9158 70.717 85.4767 69.6841C87.1784 68.5809 87.6474 66.875 87.4304 64.9026Z" fill="black"/>
<path d="M87.4323 64.9012C87.6494 66.8736 87.1801 68.5796 85.5345 69.7266C83.9804 70.8097 82.2825 70.8344 80.6518 69.8748C78.587 68.666 77.7077 65.5002 78.7897 63.1465C79.7514 61.0144 82.1614 59.9692 84.375 60.7986C86.2172 61.4729 87.0745 62.9992 87.4323 64.9012Z" fill="white"/>
<path d="M87.4323 64.9012C87.6494 66.8736 87.1801 68.5796 85.5345 69.7266C83.9804 70.8097 82.2825 70.8344 80.6518 69.8748C78.587 68.666 77.7077 65.5002 78.7897 63.1465C79.7514 61.0144 82.1614 59.9692 84.375 60.7986C86.2172 61.4729 87.0745 62.9992 87.4323 64.9012Z" fill="black"/>
<defs>
<filter id="filter0_d_174_1430" x="4.82565" y="8.32054" width="243.085" height="119.099" filterUnits="userSpaceOnUse" color-interpolation-filters="sRGB">
<feFlood flood-opacity="0" result="BackgroundImageFix"/>
<feColorMatrix in="SourceAlpha" type="matrix" values="0 0 0 0 0 0 0 0 0 0 0 0 0 0 0 0 0 0 127 0" result="hardAlpha"/>
<feOffset dx="5.17676" dy="5.17676"/>
<feComposite in2="hardAlpha" operator="out"/>
<feColorMatrix type="matrix" values="0 0 0 0 0 0 0 0 0 0 0 0 0 0 0 0 0 0 1 0"/>
<feBlend mode="normal" in2="BackgroundImageFix" result="effect1_dropShadow_174_1430"/>
<feBlend mode="normal" in="SourceGraphic" in2="effect1_dropShadow_174_1430" result="shape"/>
</filter>
<filter id="filter1_d_174_1430" x="4.82565" y="8.32054" width="243.085" height="119.099" filterUnits="userSpaceOnUse" color-interpolation-filters="sRGB">
<feFlood flood-opacity="0" result="BackgroundImageFix"/>
<feColorMatrix in="SourceAlpha" type="matrix" values="0 0 0 0 0 0 0 0 0 0 0 0 0 0 0 0 0 0 127 0" result="hardAlpha"/>
<feOffset dx="5.17676" dy="5.17676"/>
<feComposite in2="hardAlpha" operator="out"/>
<feColorMatrix type="matrix" values="0 0 0 0 0 0 0 0 0 0 0 0 0 0 0 0 0 0 1 0"/>
<feBlend mode="normal" in2="BackgroundImageFix" result="effect1_dropShadow_174_1430"/>
<feBlend mode="normal" in="SourceGraphic" in2="effect1_dropShadow_174_1430" result="shape"/>
</filter>
</defs>
</svg>
