<svg width="1056" height="134" viewBox="0 0 1056 134" fill="none" xmlns="http://www.w3.org/2000/svg">
<path d="M30.6552 134H0V0H60.1679L79.5892 126.397H87.3958L106.817 0H166.985V134H136.33V26.8L142.042 7.60284H134.426L113.1 134H53.8846L32.5592 7.60284H24.7526L30.6552 26.8V134Z" fill="white"/>
<path d="M282.092 134H186.128V0H282.092V26.8H216.783V53.6H272.572V80.2099H216.783V107.2H282.092V134Z" fill="white"/>
<path d="M348.5 0C384.296 0 421.806 9.31348 421.806 66.905C421.806 124.687 384.296 134 348.5 134H298.995V0H348.5ZM329.65 107.2H348.5C372.301 107.2 391.151 105.299 391.151 66.905C391.151 28.7007 372.301 26.8 348.5 26.8H329.65V107.2Z" fill="white"/>
<path d="M520.881 0V26.8H490.416V107.2H520.881V134H429.296V107.2H459.761V26.8H429.296V0H520.881Z" fill="white"/>
<path d="M674.738 134H643.702L631.707 91.044H577.251L565.255 134H534.219L572.872 0H635.896L674.738 134ZM600.48 7.60284L584.677 64.434H624.281L608.287 7.60284H600.48Z" fill="white"/>
<path d="M774.806 0H819.551L738.629 67.095L819.551 134H774.806L718.827 86.6723V134H688.172V0H718.827V47.5177L774.806 0Z" fill="white"/>
<path d="M922.516 0V26.8H892.051V107.2H922.516V134H830.931V107.2H861.396V26.8H830.931V0H922.516Z" fill="white"/>
<path d="M937.759 0H1056V26.8H1012.21V134H981.742V26.8H937.759V0Z" fill="white"/>
</svg>
