<svg width="18" height="18" viewBox="0 0 18 18" fill="none" xmlns="http://www.w3.org/2000/svg">
<path d="M15.0273 7.5724C14.6737 7.93243 14.1723 8.13811 13.6645 8.13811H12.5716L12.5523 8.15742C12.6616 8.53025 12.7259 8.92882 12.7259 9.34025C12.7259 11.5645 10.913 13.3774 8.68231 13.3774C6.45801 13.3774 4.64515 11.5645 4.64515 9.34025C4.64515 7.10956 6.45801 5.29666 8.68231 5.29666C9.06801 5.29666 9.44731 5.34814 9.80087 5.45737L9.83301 5.42528V4.31307C9.83301 3.79239 10.0323 3.31025 10.3987 2.95029L11.0094 2.33953C10.2701 2.08881 9.48588 1.96027 8.6887 1.96027C4.61945 1.96027 1.30872 5.271 1.30872 9.33382C1.30872 13.4032 4.61945 16.7138 8.6887 16.7138C12.758 16.7138 16.0623 13.4032 16.0623 9.33382C16.0623 8.51094 15.9273 7.70737 15.6573 6.94241L15.0273 7.5724Z" fill="#2D79EC"/>
<path d="M16.6537 3.61248C16.5637 3.37454 16.3452 3.21383 16.0944 3.19453L14.873 3.1046L14.783 1.88315C14.7637 1.63243 14.603 1.41388 14.3651 1.32387C14.1337 1.24029 13.8637 1.29813 13.6902 1.47171L11.3051 3.85669C11.183 3.97887 11.1187 4.13959 11.1187 4.31309V5.95241L9.54195 7.54998C9.28067 7.4241 8.99142 7.34744 8.68231 7.34744C7.58944 7.34744 6.69586 8.24102 6.69586 9.33384C6.69586 10.4331 7.58944 11.3268 8.68231 11.3268C9.78157 11.3268 10.6751 10.4331 10.6751 9.33384C10.6751 9.01587 10.5925 8.71908 10.4581 8.45195L12.0316 6.85242H13.6645C13.8316 6.85242 13.9987 6.78815 14.1209 6.66605L16.4994 4.28743C16.6795 4.11385 16.7373 3.84382 16.6537 3.61248Z" fill="#2D79EC"/>
</svg>
