<svg width="19" height="18" viewBox="0 0 19 18" fill="none" xmlns="http://www.w3.org/2000/svg">
<g clip-path="url(#clip0_174_1360)">
<path d="M18.5 9C18.5 4.02944 14.4706 0 9.5 0C4.52944 0 0.5 4.02944 0.5 9C0.5 13.9706 4.52944 18 9.5 18C14.4706 18 18.5 13.9706 18.5 9Z" fill="#2D79EC"/>
<path d="M5.76857 10.2689L3.16577 9.42106C3.16577 9.42106 2.85437 9.29506 2.95517 9.00886C2.97497 8.94946 3.01817 8.89906 3.14237 8.81266C3.71837 8.41126 13.8182 4.78066 13.8182 4.78066C13.8182 4.78066 14.1026 4.68526 14.2718 4.74826C14.3492 4.77706 14.3978 4.81126 14.4392 4.93006C14.4536 4.97326 14.4626 5.06686 14.4626 5.16046C14.4626 5.22706 14.4536 5.29006 14.4482 5.38726C14.387 6.37906 12.5456 13.7861 12.5456 13.7861C12.5456 13.7861 12.4358 14.2199 12.0416 14.2343C11.8976 14.2397 11.723 14.2109 11.5142 14.0309C10.7402 13.3649 8.06357 11.5667 7.47137 11.1707C7.43897 11.1491 7.42817 11.1203 7.42277 11.0915C7.41377 11.0501 7.46057 10.9979 7.46057 10.9979C7.46057 10.9979 12.1208 6.85606 12.245 6.42046C12.254 6.38626 12.218 6.37006 12.1694 6.38446C11.8598 6.49786 6.49397 9.88726 5.90177 10.2599C5.86757 10.2815 5.77037 10.2671 5.77037 10.2671L5.76857 10.2689Z" fill="white"/>
</g>
<defs>
<clipPath id="clip0_174_1360">
<rect width="18" height="18" fill="white" transform="translate(0.5)"/>
</clipPath>
</defs>
</svg>
