<svg width="18" height="18" viewBox="0 0 18 18" fill="none" xmlns="http://www.w3.org/2000/svg">
<path d="M9.00001 0C7.21997 0 5.47991 0.527841 3.99987 1.51677C2.51983 2.50571 1.36628 3.91131 0.685088 5.55585C0.00389953 7.20038 -0.17433 9.00998 0.172937 10.7558C0.520204 12.5016 1.37737 14.1053 2.63604 15.364C3.89472 16.6226 5.49836 17.4798 7.24419 17.8271C8.99002 18.1743 10.7996 17.9961 12.4442 17.3149C14.0887 16.6337 15.4943 15.4802 16.4832 14.0001C17.4722 12.5201 18 10.78 18 9C17.9969 6.61402 17.0476 4.32667 15.3605 2.63952C13.6733 0.95238 11.386 0.00315516 9.00001 0ZM10.1925 11.7788L9.39376 12.5775C9.13527 12.8397 8.82691 13.0474 8.48684 13.1884C8.14678 13.3295 7.7819 13.401 7.41376 13.3988C6.85814 13.3996 6.31476 13.2356 5.85237 12.9276C5.38999 12.6195 5.02939 12.1812 4.8162 11.6681C4.60302 11.155 4.54683 10.5902 4.65476 10.0452C4.76269 9.50014 5.02987 8.99938 5.4225 8.60625L6.22126 7.8075C6.27204 7.75417 6.33312 7.71171 6.40081 7.6827C6.46849 7.65369 6.54137 7.63873 6.61501 7.63873C6.68864 7.63873 6.76152 7.65369 6.8292 7.6827C6.89689 7.71171 6.95797 7.75417 7.00876 7.8075C7.06215 7.85941 7.1046 7.9215 7.13358 7.9901C7.16256 8.05869 7.1775 8.13241 7.1775 8.20688C7.1775 8.28135 7.16256 8.35506 7.13358 8.42366C7.1046 8.49225 7.06215 8.55434 7.00876 8.60625L6.21 9.39375C5.89823 9.71218 5.72444 10.1406 5.72625 10.5863C5.72325 10.8072 5.7645 11.0266 5.84758 11.2314C5.93066 11.4362 6.05389 11.6223 6.21 11.7788C6.3671 11.9365 6.55381 12.0617 6.75942 12.1471C6.96503 12.2326 7.18548 12.2765 7.40813 12.2765C7.63078 12.2765 7.85123 12.2326 8.05684 12.1471C8.26245 12.0617 8.44916 11.9365 8.60626 11.7788L9.39376 10.9913C9.44566 10.9379 9.50775 10.8954 9.57635 10.8664C9.64495 10.8374 9.71866 10.8225 9.79313 10.8225C9.8676 10.8225 9.94131 10.8374 10.0099 10.8664C10.0785 10.8954 10.1406 10.9379 10.1925 10.9913C10.2458 11.042 10.2883 11.1031 10.3173 11.1708C10.3463 11.2385 10.3613 11.3114 10.3613 11.385C10.3613 11.4586 10.3463 11.5315 10.3173 11.5992C10.2883 11.6669 10.2458 11.728 10.1925 11.7788ZM10.5863 8.20125L8.20125 10.5863C8.15047 10.6396 8.08939 10.682 8.0217 10.711C7.95402 10.7401 7.88115 10.755 7.80751 10.755C7.73387 10.755 7.66099 10.7401 7.59331 10.711C7.52562 10.682 7.46454 10.6396 7.41376 10.5863C7.36043 10.5355 7.31797 10.4744 7.28896 10.4067C7.25995 10.339 7.24499 10.2661 7.24499 10.1925C7.24499 10.1189 7.25995 10.046 7.28896 9.9783C7.31797 9.91062 7.36043 9.84953 7.41376 9.79875L9.79876 7.41375C9.85027 7.36118 9.9117 7.31935 9.97948 7.29067C10.0473 7.26199 10.1201 7.24703 10.1937 7.24665C10.2673 7.24628 10.3402 7.26051 10.4083 7.2885C10.4764 7.3165 10.5382 7.35771 10.5903 7.40975C10.6423 7.4618 10.6835 7.52365 10.7115 7.59172C10.7395 7.65979 10.7537 7.73273 10.7534 7.80634C10.753 7.87994 10.738 7.95274 10.7093 8.02052C10.6807 8.08831 10.6388 8.14973 10.5863 8.20125ZM12.5775 9.39375L11.7788 10.1925C11.7286 10.2466 11.6676 10.2896 11.5998 10.3186C11.532 10.3477 11.4588 10.3622 11.385 10.3613C11.3114 10.3611 11.2386 10.3461 11.1709 10.3171C11.1032 10.2881 11.0421 10.2457 10.9913 10.1925C10.9379 10.1406 10.8954 10.0785 10.8664 10.0099C10.8374 9.94131 10.8225 9.8676 10.8225 9.79313C10.8225 9.71866 10.8374 9.64494 10.8664 9.57635C10.8954 9.50775 10.9379 9.44566 10.9913 9.39375L11.79 8.60625C12.1018 8.28782 12.2756 7.85939 12.2738 7.41375C12.2768 7.19276 12.2355 6.9734 12.1524 6.7686C12.0693 6.5638 11.9461 6.37769 11.79 6.22125C11.6329 6.06348 11.4462 5.93828 11.2406 5.85286C11.035 5.76743 10.8145 5.72346 10.5919 5.72346C10.3692 5.72346 10.1488 5.76743 9.94317 5.85286C9.73756 5.93828 9.55085 6.06348 9.39376 6.22125L8.60626 7.00875C8.55435 7.06215 8.49226 7.10459 8.42366 7.13358C8.35506 7.16256 8.28135 7.17749 8.20688 7.17749C8.13241 7.17749 8.0587 7.16256 7.9901 7.13358C7.9215 7.10459 7.85941 7.06215 7.80751 7.00875C7.75418 6.95797 7.71172 6.89688 7.68271 6.8292C7.6537 6.76151 7.63874 6.68864 7.63874 6.615C7.63874 6.54136 7.6537 6.46849 7.68271 6.4008C7.71172 6.33312 7.75418 6.27203 7.80751 6.22125L8.60626 5.4225C9.13346 4.89869 9.84682 4.60524 10.59 4.60644C11.3332 4.60764 12.0456 4.9034 12.5711 5.42891C13.0966 5.95442 13.3924 6.66682 13.3936 7.41001C13.3948 8.15319 13.1013 8.86654 12.5775 9.39375Z" fill="#2D79EC"/>
</svg>
