<svg width="19" height="18" viewBox="0 0 19 18" fill="none" xmlns="http://www.w3.org/2000/svg">
<path fill-rule="evenodd" clip-rule="evenodd" d="M0.5 9C0.5 4.02943 4.52943 0 9.5 0C14.4706 0 18.5 4.02943 18.5 9C18.5 13.9706 14.4706 18 9.5 18C4.52943 18 0.5 13.9706 0.5 9ZM12.9875 6.01875C13.3813 6.13125 13.6625 6.4125 13.775 6.80625C14 7.5375 14 9 14 9C14 9 14 10.4625 13.8313 11.1937C13.7188 11.5875 13.4375 11.8687 13.0437 11.9812C12.3125 12.15 9.5 12.15 9.5 12.15C9.5 12.15 6.63125 12.15 5.95625 11.9812C5.5625 11.8687 5.28125 11.5875 5.16875 11.1937C5 10.4625 5 9 5 9C5 9 5 7.5375 5.1125 6.80625C5.225 6.4125 5.50626 6.13125 5.90001 6.01875C6.63125 5.85 9.44375 5.85 9.44375 5.85C9.44375 5.85 12.3125 5.85 12.9875 6.01875Z" fill="#2D79EC"/>
</svg>
