<svg width="216" height="28" viewBox="0 0 216 28" fill="none" xmlns="http://www.w3.org/2000/svg">
<path d="M23.446 27.1699H16.188L8.20797 16.9099C7.56197 17.4419 6.91597 17.7839 6.11797 17.9359V27.1699H-2.92063e-05V0.37992H6.11797V10.6399L13.452 2.20392C14.516 0.987921 15.732 0.37992 17.404 0.37992H22.686V5.73792H18.088L12.122 12.5399L23.446 27.1699ZM21.5516 13.7559C21.5516 5.96592 26.7196 -7.93934e-05 35.2316 -7.93934e-05C43.7056 -7.93934e-05 48.8736 5.96592 48.8736 13.7559C48.8736 21.5839 43.7056 27.5499 35.2316 27.5499C26.7196 27.5499 21.5516 21.5839 21.5516 13.7559ZM27.6696 13.7559C27.6696 18.9239 30.1776 22.1919 35.2316 22.1919C40.2856 22.1919 42.7936 18.9239 42.7936 13.7559C42.7936 8.62592 40.2856 5.35792 35.2316 5.35792C30.1776 5.35792 27.6696 8.62592 27.6696 13.7559ZM71.8562 11.4759V0.37992H77.9742V27.1699H71.8562V16.7959H58.4422V27.1699H52.3242V0.37992H58.4422V11.4759H71.8562ZM80.649 0.37992H104.247V5.73792H95.507V27.1699H89.427V5.73792H80.649V0.37992ZM129.614 27.1699H123.42L121.026 18.5819H110.158L107.764 27.1699H101.57L109.284 0.37992H121.862L129.614 27.1699ZM114.794 1.89992L111.64 13.2619H119.544L116.352 1.89992H114.794ZM156.112 27.1699H148.854L140.874 16.9099C140.228 17.4419 139.582 17.7839 138.784 17.9359V27.1699H132.666V0.37992H138.784V10.6399L146.118 2.20392C147.182 0.987921 148.398 0.37992 150.07 0.37992H155.352V5.73792H150.754L144.788 12.5399L156.112 27.1699ZM158.022 0.37992H181.62V5.73792H172.88V27.1699H166.8V5.73792H158.022V0.37992ZM184.285 0.37992H190.403V9.11992H193.899C200.283 9.11992 205.869 10.2599 205.869 18.1639C205.869 26.0679 200.283 27.1699 193.899 27.1699H184.285V0.37992ZM209.251 27.1699V0.37992H215.331V27.1699H209.251ZM190.403 14.4399V21.8119H193.899C198.269 21.8119 199.751 21.4319 199.751 18.1639C199.751 14.8579 198.269 14.4399 193.899 14.4399H190.403Z" fill="#2C2C2C"/>
</svg>
