<svg width="1057" height="149" viewBox="0 0 1057 149" fill="none" xmlns="http://www.w3.org/2000/svg">
<path d="M28.336 124.08H0V0H55.616L73.568 117.04H80.784L98.736 0H154.352V124.08H126.016V24.816L131.296 7.04H124.256L104.544 124.08H49.808L30.096 7.04H22.88L28.336 24.816V124.08Z" fill="white"/>
<path d="M260.751 124.08H172.047V0H260.751V24.816H200.383V49.632H251.951V74.272H200.383V99.264H260.751V124.08Z" fill="white"/>
<path d="M388.798 99.264H400.414V148.72H372.078V124.08H299.39V148.72H271.054V99.264H282.67C293.934 85.008 300.974 52.096 300.974 0H388.798V99.264ZM311.006 99.264H360.462V24.816H328.782C326.846 62.656 320.334 87.472 311.006 99.264Z" fill="white"/>
<path d="M535.868 0V124.08H507.532V24.816L512.988 7.04H505.772L468.636 124.08H412.844V0H441.18V99.264L435.9 117.04H442.94L480.252 0H535.868Z" fill="white"/>
<path d="M678.176 124.08H649.488L638.4 84.304H588.064L576.976 124.08H548.288L584.016 0H642.272L678.176 124.08ZM609.536 7.04L594.928 59.664H631.536L616.752 7.04H609.536Z" fill="white"/>
<path d="M800.904 124.08H767.288L730.328 76.56C727.336 79.024 724.344 80.608 720.648 81.312V124.08H692.312V0H720.648V47.52L754.616 8.448C759.544 2.816 765.176 0 772.92 0H797.384V24.816H776.088L748.456 56.32L800.904 124.08Z" fill="white"/>
<path d="M934.618 0V124.08H906.282V24.816L911.738 7.04H904.522L867.386 124.08H811.594V0H839.93V99.264L834.65 117.04H841.69L879.002 0H934.618Z" fill="white"/>
<path d="M947.079 0H1056.38V24.816H1015.9V124.08H987.735V24.816H947.079V0Z" fill="white"/>
</svg>
